<mxfile host="65bd71144e">
    <diagram id="U6bN0sPOsf2KhJRLavaf" name="第 2 页">
        <mxGraphModel dx="944" dy="830" grid="1" gridSize="10" guides="1" tooltips="1" connect="1" arrows="1" fold="1" page="1" pageScale="1" pageWidth="827" pageHeight="1169" math="0" shadow="0">
            <root>
                <mxCell id="3MUe56HT21RwzgBU79bE-0"/>
                <mxCell id="3MUe56HT21RwzgBU79bE-1" parent="3MUe56HT21RwzgBU79bE-0"/>
                <mxCell id="dJsAarygoEdBuY6sfWb7-30" value="目录结构" style="swimlane;startSize=50;horizontal=1;containerType=tree;rounded=1;shadow=0;glass=0;sketch=0;fontSize=19;arcSize=14;fontColor=#ffffff;swimlaneLine=1;fillColor=#a20025;strokeColor=#6F0000;" parent="3MUe56HT21RwzgBU79bE-1" vertex="1">
                    <mxGeometry x="34" y="40" width="736" height="550" as="geometry"/>
                </mxCell>
                <mxCell id="dJsAarygoEdBuY6sfWb7-35" value="lib" style="ellipse;whiteSpace=wrap;html=1;align=center;treeFolding=1;treeMoving=1;newEdgeStyle={&quot;edgeStyle&quot;:&quot;entityRelationEdgeStyle&quot;,&quot;startArrow&quot;:&quot;none&quot;,&quot;endArrow&quot;:&quot;none&quot;,&quot;segment&quot;:10,&quot;curved&quot;:1};rounded=1;shadow=0;glass=0;sketch=0;fontSize=19;fillColor=#a20025;strokeColor=#6F0000;fontColor=#ffffff;" parent="dJsAarygoEdBuY6sfWb7-30" vertex="1">
                    <mxGeometry x="350" y="260" width="100" height="40" as="geometry"/>
                </mxCell>
                <mxCell id="dJsAarygoEdBuY6sfWb7-42" style="edgeStyle=elbowEdgeStyle;html=1;fontSize=19;exitX=0;exitY=0.5;exitDx=0;exitDy=0;entryX=1;entryY=0.5;entryDx=0;entryDy=0;fillColor=#a20025;strokeColor=#6F0000;endArrow=none;endFill=0;elbow=vertical;" parent="dJsAarygoEdBuY6sfWb7-30" source="dJsAarygoEdBuY6sfWb7-35" target="dJsAarygoEdBuY6sfWb7-41" edge="1">
                    <mxGeometry relative="1" as="geometry">
                        <Array as="points">
                            <mxPoint x="376" y="150"/>
                            <mxPoint x="276" y="190"/>
                        </Array>
                    </mxGeometry>
                </mxCell>
                <mxCell id="dJsAarygoEdBuY6sfWb7-41" value="common/全局方法" style="whiteSpace=wrap;html=1;rounded=1;arcSize=50;align=center;verticalAlign=middle;strokeWidth=1;autosize=1;spacing=4;treeFolding=1;treeMoving=1;newEdgeStyle={&quot;edgeStyle&quot;:&quot;entityRelationEdgeStyle&quot;,&quot;startArrow&quot;:&quot;none&quot;,&quot;endArrow&quot;:&quot;none&quot;,&quot;segment&quot;:10,&quot;curved&quot;:1};shadow=0;glass=0;sketch=0;fontSize=19;fillColor=#a20025;strokeColor=#6F0000;fontColor=#ffffff;" parent="dJsAarygoEdBuY6sfWb7-30" vertex="1">
                    <mxGeometry x="40" y="120" width="190" height="40" as="geometry"/>
                </mxCell>
                <mxCell id="dJsAarygoEdBuY6sfWb7-52" style="edgeStyle=elbowEdgeStyle;html=1;exitX=0;exitY=0.5;exitDx=0;exitDy=0;entryX=1;entryY=0.5;entryDx=0;entryDy=0;fontSize=19;fillColor=#a20025;strokeColor=#6F0000;endArrow=none;endFill=0;" parent="dJsAarygoEdBuY6sfWb7-30" source="dJsAarygoEdBuY6sfWb7-35" target="dJsAarygoEdBuY6sfWb7-43" edge="1">
                    <mxGeometry relative="1" as="geometry"/>
                </mxCell>
                <mxCell id="dJsAarygoEdBuY6sfWb7-43" value="constants/系统常量" style="whiteSpace=wrap;html=1;rounded=1;arcSize=50;align=center;verticalAlign=middle;strokeWidth=1;autosize=1;spacing=4;treeFolding=1;treeMoving=1;newEdgeStyle={&quot;edgeStyle&quot;:&quot;entityRelationEdgeStyle&quot;,&quot;startArrow&quot;:&quot;none&quot;,&quot;endArrow&quot;:&quot;none&quot;,&quot;segment&quot;:10,&quot;curved&quot;:1};shadow=0;glass=0;sketch=0;fontSize=19;fillColor=#a20025;strokeColor=#6F0000;fontColor=#ffffff;" parent="dJsAarygoEdBuY6sfWb7-30" vertex="1">
                    <mxGeometry x="40" y="200" width="200" height="40" as="geometry"/>
                </mxCell>
                <mxCell id="dJsAarygoEdBuY6sfWb7-44" value="middlewares/中间件" style="whiteSpace=wrap;html=1;rounded=1;arcSize=50;align=center;verticalAlign=middle;strokeWidth=1;autosize=1;spacing=4;treeFolding=1;treeMoving=1;newEdgeStyle={&quot;edgeStyle&quot;:&quot;entityRelationEdgeStyle&quot;,&quot;startArrow&quot;:&quot;none&quot;,&quot;endArrow&quot;:&quot;none&quot;,&quot;segment&quot;:10,&quot;curved&quot;:1};shadow=0;glass=0;sketch=0;fontSize=19;fillColor=#a20025;strokeColor=#6F0000;fontColor=#ffffff;" parent="dJsAarygoEdBuY6sfWb7-30" vertex="1">
                    <mxGeometry x="35" y="470" width="210" height="40" as="geometry"/>
                </mxCell>
                <mxCell id="dJsAarygoEdBuY6sfWb7-51" style="edgeStyle=elbowEdgeStyle;html=1;exitX=0;exitY=0.5;exitDx=0;exitDy=0;entryX=1;entryY=0.5;entryDx=0;entryDy=0;fontSize=19;fillColor=#a20025;strokeColor=#6F0000;endArrow=none;endFill=0;elbow=vertical;" parent="dJsAarygoEdBuY6sfWb7-30" source="dJsAarygoEdBuY6sfWb7-35" target="dJsAarygoEdBuY6sfWb7-45" edge="1">
                    <mxGeometry relative="1" as="geometry"/>
                </mxCell>
                <mxCell id="dJsAarygoEdBuY6sfWb7-45" value="models/数据模型、实例" style="whiteSpace=wrap;html=1;rounded=1;arcSize=50;align=center;verticalAlign=middle;strokeWidth=1;autosize=1;spacing=4;treeFolding=1;treeMoving=1;newEdgeStyle={&quot;edgeStyle&quot;:&quot;entityRelationEdgeStyle&quot;,&quot;startArrow&quot;:&quot;none&quot;,&quot;endArrow&quot;:&quot;none&quot;,&quot;segment&quot;:10,&quot;curved&quot;:1};shadow=0;glass=0;sketch=0;fontSize=19;fillColor=#a20025;strokeColor=#6F0000;fontColor=#ffffff;" parent="dJsAarygoEdBuY6sfWb7-30" vertex="1">
                    <mxGeometry x="35" y="380" width="240" height="40" as="geometry"/>
                </mxCell>
                <mxCell id="dJsAarygoEdBuY6sfWb7-46" value="net/服务端接口管理" style="whiteSpace=wrap;html=1;rounded=1;arcSize=50;align=center;verticalAlign=middle;strokeWidth=1;autosize=1;spacing=4;treeFolding=1;treeMoving=1;newEdgeStyle={&quot;edgeStyle&quot;:&quot;entityRelationEdgeStyle&quot;,&quot;startArrow&quot;:&quot;none&quot;,&quot;endArrow&quot;:&quot;none&quot;,&quot;segment&quot;:10,&quot;curved&quot;:1};shadow=0;glass=0;sketch=0;fontSize=19;fillColor=#a20025;strokeColor=#6F0000;fontColor=#ffffff;" parent="dJsAarygoEdBuY6sfWb7-30" vertex="1">
                    <mxGeometry x="480" y="260" width="210" height="40" as="geometry"/>
                </mxCell>
                <mxCell id="dJsAarygoEdBuY6sfWb7-58" style="edgeStyle=elbowEdgeStyle;html=1;exitX=0.5;exitY=1;exitDx=0;exitDy=0;fontSize=19;entryX=0.5;entryY=0;entryDx=0;entryDy=0;fillColor=#a20025;strokeColor=#6F0000;elbow=vertical;endArrow=none;endFill=0;" parent="dJsAarygoEdBuY6sfWb7-30" source="dJsAarygoEdBuY6sfWb7-49" target="dJsAarygoEdBuY6sfWb7-48" edge="1">
                    <mxGeometry relative="1" as="geometry">
                        <mxPoint x="510" y="560" as="sourcePoint"/>
                    </mxGeometry>
                </mxCell>
                <mxCell id="dJsAarygoEdBuY6sfWb7-48" value="pages" style="whiteSpace=wrap;html=1;rounded=1;arcSize=50;align=center;verticalAlign=middle;strokeWidth=1;autosize=1;spacing=4;treeFolding=1;treeMoving=1;newEdgeStyle={&quot;edgeStyle&quot;:&quot;entityRelationEdgeStyle&quot;,&quot;startArrow&quot;:&quot;none&quot;,&quot;endArrow&quot;:&quot;none&quot;,&quot;segment&quot;:10,&quot;curved&quot;:1};shadow=0;glass=0;sketch=0;fontSize=19;fillColor=#a20025;strokeColor=#6F0000;fontColor=#ffffff;" parent="dJsAarygoEdBuY6sfWb7-30" vertex="1">
                    <mxGeometry x="366" y="470" width="90" height="40" as="geometry"/>
                </mxCell>
                <mxCell id="dJsAarygoEdBuY6sfWb7-49" value="ui/页面、样式、公共组件" style="whiteSpace=wrap;html=1;rounded=1;arcSize=50;align=center;verticalAlign=middle;strokeWidth=1;autosize=1;spacing=4;treeFolding=1;treeMoving=1;newEdgeStyle={&quot;edgeStyle&quot;:&quot;entityRelationEdgeStyle&quot;,&quot;startArrow&quot;:&quot;none&quot;,&quot;endArrow&quot;:&quot;none&quot;,&quot;segment&quot;:10,&quot;curved&quot;:1};shadow=0;glass=0;sketch=0;fontSize=19;fillColor=#a20025;strokeColor=#6F0000;fontColor=#ffffff;" parent="dJsAarygoEdBuY6sfWb7-30" vertex="1">
                    <mxGeometry x="440" y="380" width="250" height="40" as="geometry"/>
                </mxCell>
                <mxCell id="dJsAarygoEdBuY6sfWb7-57" style="edgeStyle=elbowEdgeStyle;html=1;fontSize=19;exitX=1;exitY=0.5;exitDx=0;exitDy=0;fillColor=#a20025;strokeColor=#6F0000;elbow=vertical;endArrow=none;endFill=0;" parent="dJsAarygoEdBuY6sfWb7-30" source="dJsAarygoEdBuY6sfWb7-35" target="dJsAarygoEdBuY6sfWb7-49" edge="1">
                    <mxGeometry relative="1" as="geometry"/>
                </mxCell>
                <mxCell id="dJsAarygoEdBuY6sfWb7-61" style="edgeStyle=elbowEdgeStyle;html=1;entryX=0.5;entryY=0;entryDx=0;entryDy=0;fontSize=19;exitX=0.5;exitY=1;exitDx=0;exitDy=0;fillColor=#a20025;strokeColor=#6F0000;endArrow=none;endFill=0;elbow=vertical;" parent="dJsAarygoEdBuY6sfWb7-30" source="dJsAarygoEdBuY6sfWb7-49" target="dJsAarygoEdBuY6sfWb7-59" edge="1">
                    <mxGeometry relative="1" as="geometry">
                        <mxPoint x="540" y="380" as="sourcePoint"/>
                    </mxGeometry>
                </mxCell>
                <mxCell id="dJsAarygoEdBuY6sfWb7-59" value="style" style="whiteSpace=wrap;html=1;rounded=1;arcSize=50;align=center;verticalAlign=middle;strokeWidth=1;autosize=1;spacing=4;treeFolding=1;treeMoving=1;newEdgeStyle={&quot;edgeStyle&quot;:&quot;entityRelationEdgeStyle&quot;,&quot;startArrow&quot;:&quot;none&quot;,&quot;endArrow&quot;:&quot;none&quot;,&quot;segment&quot;:10,&quot;curved&quot;:1};shadow=0;glass=0;sketch=0;fontSize=19;fillColor=#a20025;strokeColor=#6F0000;fontColor=#ffffff;" parent="dJsAarygoEdBuY6sfWb7-30" vertex="1">
                    <mxGeometry x="480" y="470" width="80" height="40" as="geometry"/>
                </mxCell>
                <mxCell id="dJsAarygoEdBuY6sfWb7-62" style="edgeStyle=elbowEdgeStyle;html=1;exitX=0.5;exitY=1;exitDx=0;exitDy=0;entryX=0.5;entryY=0;entryDx=0;entryDy=0;fontSize=19;fillColor=#a20025;strokeColor=#6F0000;endArrow=none;endFill=0;elbow=vertical;" parent="dJsAarygoEdBuY6sfWb7-30" source="dJsAarygoEdBuY6sfWb7-49" target="dJsAarygoEdBuY6sfWb7-60" edge="1">
                    <mxGeometry relative="1" as="geometry"/>
                </mxCell>
                <mxCell id="dJsAarygoEdBuY6sfWb7-60" value="widgets" style="whiteSpace=wrap;html=1;rounded=1;arcSize=50;align=center;verticalAlign=middle;strokeWidth=1;autosize=1;spacing=4;treeFolding=1;treeMoving=1;newEdgeStyle={&quot;edgeStyle&quot;:&quot;entityRelationEdgeStyle&quot;,&quot;startArrow&quot;:&quot;none&quot;,&quot;endArrow&quot;:&quot;none&quot;,&quot;segment&quot;:10,&quot;curved&quot;:1};shadow=0;glass=0;sketch=0;fontSize=19;fillColor=#a20025;strokeColor=#6F0000;fontColor=#ffffff;" parent="dJsAarygoEdBuY6sfWb7-30" vertex="1">
                    <mxGeometry x="580" y="470" width="110" height="40" as="geometry"/>
                </mxCell>
                <mxCell id="dJsAarygoEdBuY6sfWb7-53" style="edgeStyle=elbowEdgeStyle;html=1;exitX=1;exitY=0.5;exitDx=0;exitDy=0;fontSize=19;entryX=0;entryY=0.5;entryDx=0;entryDy=0;fillColor=#a20025;strokeColor=#6F0000;endArrow=none;endFill=0;elbow=vertical;" parent="dJsAarygoEdBuY6sfWb7-30" source="dJsAarygoEdBuY6sfWb7-35" target="dJsAarygoEdBuY6sfWb7-46" edge="1">
                    <mxGeometry relative="1" as="geometry">
                        <mxPoint x="570" y="280" as="targetPoint"/>
                        <mxPoint x="330" y="390" as="sourcePoint"/>
                    </mxGeometry>
                </mxCell>
                <mxCell id="dJsAarygoEdBuY6sfWb7-50" style="edgeStyle=elbowEdgeStyle;html=1;fontSize=19;entryX=1;entryY=0.5;entryDx=0;entryDy=0;exitX=0;exitY=0.5;exitDx=0;exitDy=0;fillColor=#a20025;strokeColor=#6F0000;endArrow=none;endFill=0;elbow=vertical;" parent="dJsAarygoEdBuY6sfWb7-30" source="dJsAarygoEdBuY6sfWb7-35" target="dJsAarygoEdBuY6sfWb7-44" edge="1">
                    <mxGeometry relative="1" as="geometry">
                        <mxPoint x="370" y="420" as="sourcePoint"/>
                        <Array as="points">
                            <mxPoint x="306" y="490"/>
                        </Array>
                    </mxGeometry>
                </mxCell>
                <mxCell id="dJsAarygoEdBuY6sfWb7-66" style="edgeStyle=elbowEdgeStyle;html=1;exitX=0;exitY=0.5;exitDx=0;exitDy=0;entryX=1;entryY=0.5;entryDx=0;entryDy=0;fontSize=19;fillColor=#a20025;strokeColor=#6F0000;endArrow=none;endFill=0;elbow=vertical;" parent="dJsAarygoEdBuY6sfWb7-30" source="dJsAarygoEdBuY6sfWb7-35" target="dJsAarygoEdBuY6sfWb7-65" edge="1">
                    <mxGeometry relative="1" as="geometry"/>
                </mxCell>
                <mxCell id="dJsAarygoEdBuY6sfWb7-65" value="helpers/工具函数" style="whiteSpace=wrap;html=1;rounded=1;arcSize=50;align=center;verticalAlign=middle;strokeWidth=1;autosize=1;spacing=4;treeFolding=1;treeMoving=1;newEdgeStyle={&quot;edgeStyle&quot;:&quot;entityRelationEdgeStyle&quot;,&quot;startArrow&quot;:&quot;none&quot;,&quot;endArrow&quot;:&quot;none&quot;,&quot;segment&quot;:10,&quot;curved&quot;:1};shadow=0;glass=0;sketch=0;fontSize=19;fillColor=#a20025;strokeColor=#6F0000;fontColor=#ffffff;" parent="dJsAarygoEdBuY6sfWb7-30" vertex="1">
                    <mxGeometry x="40" y="300" width="180" height="40" as="geometry"/>
                </mxCell>
                <mxCell id="dJsAarygoEdBuY6sfWb7-47" value="routes/路由管理" style="whiteSpace=wrap;html=1;rounded=1;arcSize=50;align=center;verticalAlign=middle;strokeWidth=1;autosize=1;spacing=4;treeFolding=1;treeMoving=1;newEdgeStyle={&quot;edgeStyle&quot;:&quot;entityRelationEdgeStyle&quot;,&quot;startArrow&quot;:&quot;none&quot;,&quot;endArrow&quot;:&quot;none&quot;,&quot;segment&quot;:10,&quot;curved&quot;:1};shadow=0;glass=0;sketch=0;fontSize=19;fillColor=#a20025;strokeColor=#6F0000;fontColor=#ffffff;" parent="dJsAarygoEdBuY6sfWb7-30" vertex="1">
                    <mxGeometry x="520" y="120" width="170" height="40" as="geometry"/>
                </mxCell>
                <mxCell id="dJsAarygoEdBuY6sfWb7-54" style="edgeStyle=elbowEdgeStyle;html=1;exitX=1;exitY=0.5;exitDx=0;exitDy=0;fontSize=19;entryX=0;entryY=0.5;entryDx=0;entryDy=0;fillColor=#a20025;strokeColor=#6F0000;endArrow=none;endFill=0;elbow=vertical;" parent="dJsAarygoEdBuY6sfWb7-30" source="dJsAarygoEdBuY6sfWb7-35" target="dJsAarygoEdBuY6sfWb7-47" edge="1">
                    <mxGeometry relative="1" as="geometry">
                        <mxPoint x="346" y="380" as="sourcePoint"/>
                    </mxGeometry>
                </mxCell>
            </root>
        </mxGraphModel>
    </diagram>
</mxfile>